<?xml version="1.0" encoding="UTF-8"?>
<svg height="128px" viewBox="0 0 128 128" width="128px" xmlns="http://www.w3.org/2000/svg">
    <path d="m 124 64 c 0 33.136719 -26.863281 60 -60 60 s -60 -26.863281 -60 -60 s 26.863281 -60 60 -60 s 60 26.863281 60 60 z m 0 0" fill="#865e3c"/>
    <path d="m 123.960938 62.511719 c -0.277344 32.921875 -27.035157 59.46875 -59.960938 59.488281 c -32.722656 -0.035156 -59.382812 -26.28125 -59.929688 -59 c -0.023437 0.332031 -0.050781 0.667969 -0.070312 1 c 0 33.136719 26.863281 60 60 60 s 60 -26.863281 60 -60 c -0.007812 -0.496094 -0.019531 -0.992188 -0.035156 -1.488281 z m 0 0" fill="#63452c"/>
    <path d="m 114 64 c 0 27.613281 -22.386719 50 -50 50 s -50 -22.386719 -50 -50 s 22.386719 -50 50 -50 s 50 22.386719 50 50 z m 0 0" fill="#f5c211"/>
    <path d="m 64 14 c -27.613281 0 -50 22.386719 -50 50 c 0.019531 0.332031 0.042969 0.667969 0.074219 1 c 0.542969 -27.195312 22.726562 -48.964844 49.925781 -49 c 27.027344 0.007812 49.160156 21.496094 49.960938 48.511719 c 0.015624 -0.171875 0.027343 -0.339844 0.039062 -0.511719 c 0 -27.613281 -22.386719 -50 -50 -50 z m 0 0" fill="#e5a50a"/>
    <g fill-opacity="0.25098">
        <path d="m 46.039062 82.28125 h -16.4375 v -28.5625 h 16.4375 v 4.960938 h -10.398437 v 6.28125 h 9.679687 v 4.960937 h -9.679687 v 7.359375 h 10.398437 z m 0 0"/>
        <path d="m 75.078125 82.28125 h -6.917969 l -6.640625 -10.800781 l -6.640625 10.800781 h -6.480468 l 9.480468 -14.722656 l -8.878906 -13.839844 h 6.679688 l 6.160156 10.28125 l 6.039062 -10.28125 h 6.519532 l -8.957032 14.160156 z m 0 0"/>
        <path d="m 87.800781 53.71875 c 3.679688 0 6.359375 0.800781 8.039063 2.402344 c 1.707031 1.570312 2.558594 3.746094 2.558594 6.519531 c 0 1.652344 -0.34375 3.210937 -1.039063 4.679687 c -0.691406 1.441407 -1.851563 2.601563 -3.480469 3.480469 c -1.597656 0.878907 -3.785156 1.320313 -6.558594 1.320313 h -2.601562 v 10.160156 h -6.039062 v -28.5625 z m -0.320312 4.960938 h -2.761719 v 8.480468 h 2 c 1.707031 0 3.054688 -0.332031 4.042969 -1 c 1.011719 -0.695312 1.519531 -1.800781 1.519531 -3.320312 c 0 -2.773438 -1.601562 -4.160156 -4.800781 -4.160156 z m 0 0"/>
    </g>
    <path d="m 46.039062 80.28125 h -16.4375 v -28.5625 h 16.4375 v 4.960938 h -10.398437 v 6.28125 h 9.679687 v 4.960937 h -9.679687 v 7.359375 h 10.398437 z m 0 0"/>
    <path d="m 75.078125 80.28125 h -6.917969 l -6.640625 -10.800781 l -6.640625 10.800781 h -6.480468 l 9.480468 -14.722656 l -8.878906 -13.839844 h 6.679688 l 6.160156 10.28125 l 6.039062 -10.28125 h 6.519532 l -8.957032 14.160156 z m 0 0"/>
    <path d="m 87.800781 51.71875 c 3.679688 0 6.359375 0.800781 8.039063 2.402344 c 1.707031 1.570312 2.558594 3.746094 2.558594 6.519531 c 0 1.652344 -0.34375 3.210937 -1.039063 4.679687 c -0.691406 1.441407 -1.851563 2.601563 -3.480469 3.480469 c -1.597656 0.878907 -3.785156 1.320313 -6.558594 1.320313 h -2.601562 v 10.160156 h -6.039062 v -28.5625 z m -0.320312 4.960938 h -2.761719 v 8.480468 h 2 c 1.707031 0 3.054688 -0.332031 4.042969 -1 c 1.011719 -0.695312 1.519531 -1.800781 1.519531 -3.320312 c 0 -2.773438 -1.601562 -4.160156 -4.800781 -4.160156 z m 0 0"/>
</svg>
